<svg width="64" height="54" viewBox="0 0 64 54" fill="none" xmlns="http://www.w3.org/2000/svg">
<path d="M58.8582 5.21968C51.8977 -1.73895 40.5743 -1.73895 33.6157 5.21968L31.9994 6.83501L30.3841 5.21968C23.4255 -1.73989 12.1012 -1.73989 5.14259 5.21968C-1.67475 12.037 -1.71902 22.8432 5.03993 30.3566C11.2046 37.207 29.3857 52.0068 30.1571 52.6331C30.6598 53.0431 31.2887 53.2667 31.9373 53.2661L31.9985 53.2651C32.6465 53.2953 33.2992 53.073 33.8399 52.6331C34.6113 52.0068 52.7943 37.207 58.9608 30.3557C65.7188 22.8432 65.6746 12.037 58.8582 5.21968ZM54.76 26.5759C49.9536 31.9155 36.7418 42.928 31.9985 46.8358C27.2552 42.9289 14.0462 31.9174 9.24073 26.5769C4.52566 21.3362 4.48139 13.8728 9.13806 9.21609C11.5163 6.83878 14.6396 5.64918 17.7629 5.64918C20.8862 5.64918 24.0095 6.83783 26.3877 9.21609L29.9405 12.7689C30.3518 13.1778 30.8826 13.4454 31.456 13.5327C31.9185 13.633 32.3988 13.6157 32.853 13.4824C33.3071 13.3491 33.7206 13.1041 34.0556 12.7698L37.6102 9.21609C42.3677 4.46052 50.1062 4.46146 54.8608 9.21609C59.5175 13.8728 59.4732 21.3362 54.76 26.5759Z" fill="#BFA470"/>
</svg>
