<svg width="54" height="64" viewBox="0 0 54 64" fill="none" xmlns="http://www.w3.org/2000/svg">
<path d="M53.5833 53.7223L45.0138 39.0306C48.4904 34.8981 50.5883 29.5702 50.5883 23.7612C50.5883 10.6591 39.9227 0 26.813 0C13.7033 0 3.03769 10.6591 3.03769 23.7611C3.03769 29.6537 5.19591 35.0514 8.76281 39.2083L0.296899 53.7223C-0.694554 55.4218 0.960831 57.5268 2.84473 56.9671L9.88719 54.8788L12.5209 62.529C13.1275 64.2917 15.6142 64.5321 16.5443 62.9102L21.7964 53.7489C22.4058 52.6858 22.0379 51.3301 20.9746 50.7207C19.9115 50.1113 18.5555 50.479 17.9459 51.5423L15.1256 56.4617L13.3919 51.4254C13.0053 50.3021 11.8025 49.6826 10.6628 50.0204L6.95208 51.1208L12.0532 42.3755C16.1109 45.5959 21.2409 47.5225 26.813 47.5225C32.4647 47.5225 37.6613 45.5401 41.7458 42.2363L46.9281 51.121L43.2174 50.0205C42.0785 49.6825 40.875 50.3021 40.4884 51.4255L38.7546 56.4617L35.7808 51.2744C35.1713 50.2111 33.8147 49.8436 32.752 50.4528C31.6888 51.0622 31.3209 52.4179 31.9303 53.481L37.3359 62.9104C38.266 64.5325 40.7521 64.2935 41.3593 62.5292L43.993 54.879L51.0355 56.9674C52.9194 57.526 54.5751 55.4224 53.5833 53.7223ZM26.813 43.0849C16.1503 43.0849 7.4757 34.4163 7.4757 23.7612C7.4757 13.1061 16.1503 4.43747 26.813 4.43747C37.4757 4.43747 46.1503 13.1061 46.1503 23.7612C46.1503 34.4163 37.4757 43.0849 26.813 43.0849Z" fill="#BFA470"/>
<path d="M17.4232 33.7327L18.515 26.8028L13.2664 21.9867C11.9252 20.7559 12.6229 18.4463 14.4181 18.1607L21.5767 17.022L24.6627 10.6485C25.4385 9.04635 27.7881 9.00177 28.6217 10.5784L31.9354 16.8455L39.1326 17.7401C40.9354 17.9642 41.7122 20.2469 40.4154 21.5232L35.3438 26.5133L36.683 33.4009C37.0258 35.1637 35.1415 36.6086 33.5267 35.816L27.0344 32.6284L20.661 36.0345C19.2394 36.7622 17.06 35.9302 17.4232 33.7327ZM19.6505 21.8219L22.3927 24.338C22.6623 24.5854 22.8666 24.8956 22.9872 25.2411C23.1079 25.5866 23.1412 25.9565 23.0842 26.318L22.501 30.0202L25.9457 28.1792C26.2562 28.0133 26.6017 27.9237 26.9536 27.9176C27.3056 27.9116 27.6539 27.9893 27.97 28.1443L31.4746 29.8649L30.7601 26.1911C30.6902 25.8316 30.7104 25.4603 30.8189 25.1105C30.9274 24.7607 31.1208 24.4432 31.3819 24.1863L34.033 21.5779L30.2406 21.1064C29.8863 21.0623 29.5479 20.9335 29.254 20.7307C28.9602 20.5279 28.7196 20.2573 28.5527 19.9417L26.7474 16.5274L25.0667 19.9981C24.9109 20.32 24.6796 20.5994 24.3925 20.8125C24.1055 21.0257 23.7711 21.1664 23.418 21.2225L19.6505 21.8219Z" fill="#BFA470"/>
</svg>
