<svg width="32" height="32" viewBox="0 0 32 32" fill="none" xmlns="http://www.w3.org/2000/svg">
<path d="M0 16C0 7.16344 7.16344 0 16 0C24.8366 0 32 7.16344 32 16C32 24.8366 24.8366 32 16 32C7.16344 32 0 24.8366 0 16Z" fill="#4C6C91"/>
<path d="M16.8369 21.2508C16.8369 21.2508 17.1449 21.2172 17.3026 21.0509C17.4471 20.8985 17.442 20.6109 17.442 20.6109C17.442 20.6109 17.4228 19.2679 18.0581 19.0696C18.6841 18.8746 19.488 20.3683 20.3411 20.9427C20.9855 21.377 21.4746 21.2819 21.4746 21.2819L23.7543 21.2508C23.7543 21.2508 24.9463 21.1787 24.3812 20.2585C24.3344 20.1831 24.0514 19.5776 22.6867 18.3338C21.2568 17.0319 21.4488 17.2424 23.17 14.99C24.2184 13.6184 24.6374 12.781 24.5064 12.4229C24.382 12.0804 23.6107 12.1714 23.6107 12.1714L21.0447 12.1869C21.0447 12.1869 20.8544 12.1615 20.7134 12.2443C20.5756 12.3254 20.4863 12.5147 20.4863 12.5147C20.4863 12.5147 20.0806 13.5758 19.5389 14.4787C18.3961 16.3829 17.9395 16.4837 17.7526 16.3657C17.3177 16.0896 17.4262 15.2579 17.4262 14.6672C17.4262 12.8211 17.7117 12.0517 16.8711 11.8526C16.5923 11.7862 16.3869 11.7428 15.6732 11.7354C14.7575 11.7264 13.9829 11.7387 13.5438 11.9493C13.2517 12.0894 13.0263 12.4024 13.164 12.4204C13.3335 12.4426 13.7175 12.522 13.9211 12.7941C14.1841 13.1456 14.1749 13.9338 14.1749 13.9338C14.1749 13.9338 14.326 16.1068 13.8218 16.3764C13.4762 16.5615 13.0021 16.1838 11.9829 14.4558C11.4612 13.5708 11.0672 12.5925 11.0672 12.5925C11.0672 12.5925 10.9912 12.4098 10.8552 12.3115C10.6907 12.1927 10.4612 12.1558 10.4612 12.1558L8.02293 12.1714C8.02293 12.1714 7.65649 12.1812 7.52209 12.3377C7.40273 12.4762 7.51291 12.7638 7.51291 12.7638C7.51291 12.7638 9.42194 17.1482 11.5839 19.358C13.5664 21.3835 15.8168 21.2508 15.8168 21.2508H16.8369Z" fill="white"/>
</svg>
